<?xml version="1.0" standalone="no"?>
<!DOCTYPE svg PUBLIC "-//W3C//DTD SVG 20010904//EN"
 "http://www.w3.org/TR/2001/REC-SVG-20010904/DTD/svg10.dtd">
<svg version="1.0" xmlns="http://www.w3.org/2000/svg"
 width="1200.000000pt" height="1200.000000pt" viewBox="0 0 1200.000000 1200.000000"
 preserveAspectRatio="xMidYMid meet">
<metadata>
Created by potrace 1.14, written by Peter Selinger 2001-2017
</metadata>
<g transform="translate(0.000000,1200.000000) scale(0.100000,-0.100000)"
fill="#000000" stroke="none">
<path d="M336 10168 c5 -7 -1 -9 -19 -6 -17 3 -24 1 -20 -5 4 -7 -1 -8 -12 -3
-14 5 -15 4 -7 -7 9 -10 6 -13 -16 -13 -16 1 -26 -4 -25 -11 2 -7 -4 -10 -12
-7 -8 4 -15 1 -15 -4 0 -6 -9 -9 -21 -7 -18 4 -19 2 -8 -13 7 -9 10 -14 5 -10
-9 7 -76 -49 -76 -64 0 -5 -6 -16 -12 -23 -33 -36 -39 -46 -34 -54 3 -5 -1
-12 -10 -15 -8 -3 -12 -10 -9 -16 3 -6 -2 -13 -11 -17 -16 -6 -16 -7 2 -14 18
-7 18 -8 0 -8 -12 -1 -16 -6 -13 -16 4 -8 2 -17 -3 -20 -5 -3 -8 -19 -6 -35 2
-17 -1 -30 -5 -30 -6 0 -9 -264 -8 -615 1 -429 4 -613 12 -608 6 4 7 1 1 -8
-13 -20 -13 -900 -1 -892 6 4 7 1 1 -8 -13 -21 -14 -240 -1 -232 6 4 7 1 1 -8
-13 -21 -14 -240 -1 -232 6 4 7 1 1 -8 -13 -21 -14 -240 -1 -232 6 4 7 1 1 -8
-13 -21 -14 -240 -1 -232 6 4 7 1 1 -8 -13 -21 -14 -240 -1 -232 6 4 7 1 1 -8
-13 -21 -14 -240 -1 -232 6 4 7 1 1 -8 -13 -21 -14 -240 -1 -232 6 4 7 1 1 -8
-13 -21 -14 -240 -1 -232 6 4 7 1 1 -8 -13 -21 -14 -240 -1 -232 6 4 7 1 1 -8
-13 -21 -14 -240 -1 -232 6 4 7 1 1 -8 -13 -21 -14 -240 -1 -232 6 4 7 1 1 -8
-13 -21 -14 -240 -1 -232 6 4 7 1 1 -8 -13 -21 -14 -240 -1 -232 6 4 7 1 1 -8
-13 -21 -14 -240 -1 -232 6 4 7 1 1 -8 -13 -21 -14 -240 -1 -232 6 4 7 1 1 -8
-13 -21 -14 -240 -1 -232 6 4 7 1 1 -8 -13 -21 -14 -240 -1 -232 6 4 7 1 1 -8
-14 -22 -14 -240 0 -232 8 5 7 2 -1 -8 -8 -10 -12 -161 -13 -560 0 -300 2
-553 6 -562 3 -9 11 -14 18 -10 8 4 8 3 -1 -7 -8 -9 -8 -20 3 -46 8 -19 12
-34 8 -34 -3 0 2 -7 10 -16 9 -8 14 -20 11 -25 -4 -5 -1 -9 4 -9 6 0 11 -10
11 -22 0 -19 2 -20 10 -8 8 13 10 12 10 -4 0 -10 8 -25 18 -33 11 -10 12 -12
2 -8 -10 4 -9 2 3 -8 9 -8 17 -19 17 -26 0 -10 13 -15 33 -12 4 0 6 -5 5 -11
-2 -7 3 -12 9 -10 7 1 13 -4 13 -12 0 -18 27 -28 34 -13 4 7 5 3 3 -8 -3 -15
2 -20 21 -22 13 0 28 -6 32 -13 4 -6 21 -12 38 -12 17 -1 29 -5 26 -9 -3 -5
1289 -9 2871 -9 l2875 0 -45 82 c-136 248 -280 606 -330 820 -3 13 -12 52 -20
88 -23 95 -62 316 -69 385 -3 33 -9 89 -13 125 -14 134 -5 690 12 720 1 3 6
32 10 65 27 238 124 605 225 845 17 41 38 93 48 115 88 213 292 546 479 780
99 125 368 399 488 497 416 339 897 587 1370 705 33 8 67 16 75 19 46 12 266
54 316 60 33 3 68 8 78 10 102 19 635 27 766 11 36 -4 83 -10 105 -13 22 -3
51 -7 65 -9 14 -2 45 -7 70 -10 151 -21 419 -90 605 -155 196 -69 431 -180
633 -297 l42 -25 0 44 c1 917 -2 3119 -4 3133 -2 11 -9 19 -16 17 -7 -1 -8 2
-4 10 11 18 12 48 2 48 -4 0 -8 7 -8 16 0 8 -4 12 -10 9 -5 -3 -7 0 -5 8 3 7
-6 30 -20 51 -14 20 -25 41 -25 47 0 6 -4 7 -10 4 -5 -3 -10 -1 -10 5 0 15
-26 41 -34 33 -3 -4 -6 0 -6 7 0 7 -14 26 -32 42 -34 30 -46 36 -32 15 5 -7 2
-5 -7 5 -9 9 -19 14 -23 11 -3 -4 -6 -1 -6 6 0 7 -4 10 -9 6 -5 -3 -12 -1 -16
5 -4 6 -11 8 -16 5 -5 -4 -9 -1 -9 5 0 7 -7 10 -15 7 -8 -4 -17 -2 -20 4 -4 6
-1871 9 -5171 9 -3842 0 -5163 -3 -5158 -12z"/>
<path d="M9108 6465 c-2 -1 -61 -5 -133 -9 -71 -3 -139 -8 -150 -10 -11 -2
-42 -7 -70 -10 -50 -7 -139 -22 -185 -31 -169 -36 -291 -72 -447 -131 -538
-204 -1012 -581 -1345 -1069 -260 -382 -425 -838 -475 -1315 -17 -163 -7 -560
17 -690 5 -25 11 -65 15 -90 4 -24 8 -47 10 -50 2 -3 6 -26 10 -50 11 -86 85
-325 142 -465 144 -354 353 -672 615 -935 127 -129 173 -169 313 -275 442
-335 963 -531 1520 -570 91 -6 335 -7 390 -1 17 2 66 6 110 10 421 39 893 208
1264 453 135 90 113 74 266 201 362 300 648 697 823 1144 75 190 137 416 162
593 6 44 13 91 15 105 8 53 18 249 18 335 0 107 -11 326 -17 346 -3 8 -7 37
-10 64 -5 42 -21 132 -30 170 -1 6 -8 37 -15 70 -27 124 -96 341 -140 437 -11
26 -21 50 -21 54 0 17 -133 270 -191 363 -68 109 -198 288 -258 355 -64 73
-284 290 -341 337 -213 176 -485 341 -733 443 -71 30 -216 80 -332 116 -43 13
-203 50 -244 56 -20 3 -43 7 -51 9 -8 2 -42 7 -75 11 -33 3 -69 8 -80 10 -11
2 -76 7 -145 10 -69 3 -142 7 -162 8 -21 2 -39 2 -40 1z"/>
</g>
</svg>
